<svg xmlns="http://www.w3.org/2000/svg" xmlns:xlink="http://www.w3.org/1999/xlink" version="1.1" font-family="sans-serif, droid-sans, helvetica, verdana, tahoma" viewbox="0 0 600 534" width="600" height="534" preserveAspectRatio="xMinYMin meet"><rect x="0" y="0" width="600" height="534" fill="#FEFEFE" stroke="#757575" stroke-width="2"/><g stroke="#757575" stroke-width="1"><line x1="164" y1="64" x2="164" y2="461"/><line x1="164" y1="460" x2="586" y2="460"/></g><a xlink:href="http://www.openbenchmarking.org/" xlink:show="new"><text x="585" y="59" font-size="8" fill="#065695" text-anchor="end" xlink:show="new">OpenBenchmarking.org</text></a><polygon points="173,56 164,60.5 164,51.5" fill="#065695" stroke="#949494" stroke-width="1"/><text x="176" y="59" font-size="8" fill="#065695" text-anchor="start">Real C/S, More Is Better</text><rect x="0" y="0" width="600" height="48" fill="#231f20"/><a xlink:href="http://openbenchmarking.org/test/pts/john-the-ripper-1.5.1" xlink:show="new"><text x="6" y="19" font-size="17" fill="#FEFEFE" text-anchor="start" xlink:show="new" font-weight="bold">John The Ripper v1.8.0</text></a><text x="6" y="36" font-size="11" font-weight="bold" fill="#FEFEFE" text-anchor="start">Test: Blowfish</text><path d="m74 22v9m-5-16v16m-5-28v28m-23-2h12.5c2.485281 0 4.5-2.014719 4.5-4.5s-2.014719-4.5-4.5-4.5h-8c-2.485281 0-4.5-2.014719-4.5-4.5s2.014719-4.5 4.5-4.5h12.5m-21 5h-11m11 13h-2c-4.970563 0-9-4.029437-9-9v-20m-24 40v-20c0-4.970563 4.0294373-9 9-9 4.970563 0 9 4.029437 9 9s-4.029437 9-9 9h-9" stroke="#ffffff" stroke-width="4" fill="none" transform="translate(508,4)"/><line x1="164" y1="100" x2="164" y2="430" stroke="#757575" stroke-width="11" stroke-dasharray="1,35"/><g font-size="10" fill="#231f20" font-weight="bold"><text x="159" y="80" text-anchor="end">Orange Pi One</text><text x="159" y="116" text-anchor="end">Orange Pi PC</text><text x="159" y="152" text-anchor="end">Raspberry Pi 2 Model B</text><text x="159" y="188" text-anchor="end">Orange Pi Plus</text><text x="159" y="224" text-anchor="end">ODROID-C1</text><text x="159" y="260" text-anchor="end">Raspberry Pi 3 Model B</text><text x="159" y="296" text-anchor="end">PINE 64+</text><text x="159" y="332" text-anchor="end">ODROID-C2</text><text x="159" y="368" text-anchor="end">Banana Pi M3</text><text x="159" y="404" text-anchor="end">Jetson TX1</text><text x="159" y="440" text-anchor="end">Jetson TX2</text></g><g font-size="10" fill="#065695" text-anchor="middle"><text x="236" y="475">300</text><text x="306" y="475">600</text><text x="376" y="475">900</text><text x="446" y="475">1200</text><text x="516" y="475">1500</text></g><g stroke="#BABABA" stroke-width="1"><line x1="236" y1="64" x2="236" y2="455" stroke-dasharray="5,5"/><line x1="236" y1="456" x2="236" y2="465"/><line x1="306" y1="64" x2="306" y2="455" stroke-dasharray="5,5"/><line x1="306" y1="456" x2="306" y2="465"/><line x1="376" y1="64" x2="376" y2="455" stroke-dasharray="5,5"/><line x1="376" y1="456" x2="376" y2="465"/><line x1="446" y1="64" x2="446" y2="455" stroke-dasharray="5,5"/><line x1="446" y1="456" x2="446" y2="465"/><line x1="516" y1="64" x2="516" y2="455" stroke-dasharray="5,5"/><line x1="516" y1="456" x2="516" y2="465"/></g><g stroke="#949494" stroke-width="1"><rect x="164" y="70" height="24" width="29" fill="#2196f3" xlink:title="Orange Pi One: 122"/><rect x="164" y="106" height="24" width="77" fill="#2196f3" xlink:title="Orange Pi PC: 329"/><rect x="164" y="142" height="24" width="91" fill="#2196f3" xlink:title="Raspberry Pi 2 Model B: 388"/><rect x="164" y="178" height="24" width="91" fill="#2196f3" xlink:title="Orange Pi Plus: 389"/><rect x="164" y="214" height="24" width="115" fill="#2196f3" xlink:title="ODROID-C1: 493"/><rect x="164" y="250" height="24" width="119" fill="#2196f3" xlink:title="Raspberry Pi 3 Model B: 510"/><rect x="164" y="286" height="24" width="139" fill="#2196f3" xlink:title="PINE 64+: 596"/><rect x="164" y="322" height="24" width="201" fill="#2196f3" xlink:title="ODROID-C2: 861"/><rect x="164" y="358" height="24" width="244" fill="#2196f3" xlink:title="Banana Pi M3: 1045"/><rect x="164" y="394" height="24" width="317" fill="#2196f3" xlink:title="Jetson TX1: 1354"/><rect x="164" y="430" height="24" width="357" fill="#2196f3" xlink:title="Jetson TX2: 1525"/></g><g font-size="8" fill="#065695" text-anchor="end"><text y="94" x="159">SE +/- 1.53</text><text y="202" x="159">SE +/- 0.67</text><text y="238" x="159">SE +/- 0.67</text><text y="310" x="159">SE +/- 10.17</text><text y="346" x="159">SE +/- 1.00</text><text y="382" x="159">SE +/- 1.67</text><text y="418" x="159">SE +/- 23.07</text><text y="454" x="159">SE +/- 15.84</text></g><g font-size="10" fill="#FFFFFF" font-weight="bold" text-anchor="end"><text x="188" y="88">122</text><text x="236" y="124">329</text><text x="250" y="160">388</text><text x="250" y="196">389</text><text x="274" y="232">493</text><text x="278" y="268">510</text><text x="298" y="304">596</text><text x="360" y="340">861</text><text x="403" y="376">1045</text><text x="476" y="412">1354</text><text x="516" y="448">1525</text></g><g stroke="#757575" stroke-width="1"><line x1="476" y1="394" x2="476" y2="402"/><line x1="486" y1="394" x2="486" y2="402"/><line x1="476" y1="394" x2="486" y2="394"/></g><rect x="0" y="482" width="600" height="52" fill="#231f20"/><a xlink:href="http://www.phoronix-test-suite.com/" xlink:show="new"><text x="585" y="494" font-size="9" fill="#FEFEFE" text-anchor="end" xlink:show="new">Phoronix Test Suite 7.0.0</text></a><a xlink:href="/prospect/1703199-RI-ARMYARM4104/f0b5f30095f18fb4dd17a8ec3ea01a9952fb354a" xlink:show="new"><g transform="translate(4,483)" width="10" height="16"><path d="M5 0v6.5L0 11l3-3-3-3.5L5 0" fill="#038bb8"/><path d="M5 0v6.5l5 4.5-3-3 3-3.5L5 0" fill="#25b3e8"/><path d="M5 16V9l5-4.5V11l-5 5" fill="#e4f4fd"/><path d="M5 16V9L0 4.5V11l5 5" fill="#65cbf4"/></g></a><text x="5" y="508" font-size="8" fill="#FEFEFE" text-anchor="start" xlink:title="-fopenmp" width="595">1. (CC) gcc options: -fopenmp</text></svg>
