<svg xmlns="http://www.w3.org/2000/svg" xmlns:xlink="http://www.w3.org/1999/xlink" version="1.1" font-family="sans-serif, droid-sans, helvetica, verdana, tahoma" viewbox="0 0 600 534" width="600" height="534" preserveAspectRatio="xMinYMin meet"><rect x="0" y="0" width="600" height="534" fill="#FEFEFE" stroke="#757575" stroke-width="2"/><g stroke="#757575" stroke-width="1"><line x1="164" y1="64" x2="164" y2="461"/><line x1="164" y1="460" x2="586" y2="460"/></g><a xlink:href="http://www.openbenchmarking.org/" xlink:show="new"><text x="585" y="59" font-size="8" fill="#065695" text-anchor="end" xlink:show="new">OpenBenchmarking.org</text></a><polygon points="164,56 173,60.5 173,51.5" fill="#065695" stroke="#949494" stroke-width="1"/><text x="176" y="59" font-size="8" fill="#065695" text-anchor="start">Seconds, Less Is Better</text><rect x="0" y="0" width="600" height="48" fill="#231f20"/><a xlink:href="http://openbenchmarking.org/test/pts/c-ray-1.1.0" xlink:show="new"><text x="6" y="19" font-size="17" fill="#FEFEFE" text-anchor="start" xlink:show="new" font-weight="bold">C-Ray v1.1</text></a><text x="6" y="36" font-size="11" font-weight="bold" fill="#FEFEFE" text-anchor="start">Total Time</text><path d="m74 22v9m-5-16v16m-5-28v28m-23-2h12.5c2.485281 0 4.5-2.014719 4.5-4.5s-2.014719-4.5-4.5-4.5h-8c-2.485281 0-4.5-2.014719-4.5-4.5s2.014719-4.5 4.5-4.5h12.5m-21 5h-11m11 13h-2c-4.970563 0-9-4.029437-9-9v-20m-24 40v-20c0-4.970563 4.0294373-9 9-9 4.970563 0 9 4.029437 9 9s-4.029437 9-9 9h-9" stroke="#ffffff" stroke-width="4" fill="none" transform="translate(508,4)"/><line x1="164" y1="100" x2="164" y2="430" stroke="#757575" stroke-width="11" stroke-dasharray="1,35"/><g font-size="10" fill="#231f20" font-weight="bold"><text x="159" y="80" text-anchor="end">Orange Pi One</text><text x="159" y="116" text-anchor="end">Orange Pi PC</text><text x="159" y="152" text-anchor="end">Raspberry Pi 2 Model B</text><text x="159" y="188" text-anchor="end">Orange Pi Plus</text><text x="159" y="224" text-anchor="end">ODROID-C1</text><text x="159" y="260" text-anchor="end">PINE 64+</text><text x="159" y="296" text-anchor="end">Raspberry Pi 3 Model B</text><text x="159" y="332" text-anchor="end">ODROID-C2</text><text x="159" y="368" text-anchor="end">Banana Pi M3</text><text x="159" y="404" text-anchor="end">Jetson TX1</text><text x="159" y="440" text-anchor="end">Jetson TX2</text></g><g font-size="10" fill="#065695" text-anchor="middle"><text x="236" y="475">300</text><text x="306" y="475">600</text><text x="376" y="475">900</text><text x="446" y="475">1200</text><text x="516" y="475">1500</text></g><g stroke="#BABABA" stroke-width="1"><line x1="236" y1="64" x2="236" y2="455" stroke-dasharray="5,5"/><line x1="236" y1="456" x2="236" y2="465"/><line x1="306" y1="64" x2="306" y2="455" stroke-dasharray="5,5"/><line x1="306" y1="456" x2="306" y2="465"/><line x1="376" y1="64" x2="376" y2="455" stroke-dasharray="5,5"/><line x1="376" y1="456" x2="376" y2="465"/><line x1="446" y1="64" x2="446" y2="455" stroke-dasharray="5,5"/><line x1="446" y1="456" x2="446" y2="465"/><line x1="516" y1="64" x2="516" y2="455" stroke-dasharray="5,5"/><line x1="516" y1="456" x2="516" y2="465"/></g><g stroke="#949494" stroke-width="1"><rect x="164" y="70" height="24" width="338" fill="#2196f3" xlink:title="Orange Pi One: 1444.32"/><rect x="164" y="106" height="24" width="222" fill="#2196f3" xlink:title="Orange Pi PC: 948.96"/><rect x="164" y="142" height="24" width="118" fill="#2196f3" xlink:title="Raspberry Pi 2 Model B: 505.56"/><rect x="164" y="178" height="24" width="115" fill="#2196f3" xlink:title="Orange Pi Plus: 493.13"/><rect x="164" y="214" height="24" width="74" fill="#2196f3" xlink:title="ODROID-C1: 317.48"/><rect x="164" y="250" height="24" width="63" fill="#2196f3" xlink:title="PINE 64+: 267.73"/><rect x="164" y="286" height="24" width="59" fill="#2196f3" xlink:title="Raspberry Pi 3 Model B: 254.13"/><rect x="164" y="322" height="24" width="43" fill="#2196f3" xlink:title="ODROID-C2: 185.44"/><rect x="164" y="358" height="24" width="43" fill="#2196f3" xlink:title="Banana Pi M3: 183.84"/><rect x="164" y="394" height="24" width="25" fill="#2196f3" xlink:title="Jetson TX1: 107.22"/><rect x="164" y="430" height="24" width="24" fill="#2196f3" xlink:title="Jetson TX2: 102.53"/></g><g font-size="8" fill="#065695" text-anchor="end"><text y="94" x="159">SE +/- 0.93</text><text y="130" x="159">SE +/- 4.43</text><text y="166" x="159">SE +/- 1.08</text><text y="202" x="159">SE +/- 4.45</text><text y="238" x="159">SE +/- 0.19</text><text y="274" x="159">SE +/- 1.47</text><text y="310" x="159">SE +/- 2.10</text><text y="346" x="159">SE +/- 0.09</text><text y="382" x="159">SE +/- 0.06</text><text y="418" x="159">SE +/- 9.87</text><text y="454" x="159">SE +/- 12.08</text></g><g font-size="10" fill="#FFFFFF" font-weight="bold" text-anchor="end"><text x="497" y="88">1444.32</text><text x="381" y="124">948.96</text><text x="277" y="160">505.56</text><text x="274" y="196">493.13</text><text x="233" y="232">317.48</text><text x="222" y="268">267.73</text><text x="218" y="304">254.13</text><text x="202" y="340">185.44</text><text x="202" y="376">183.84</text><text x="195" y="412" fill="#065695" text-anchor="start">107.22</text><text x="194" y="448" fill="#065695" text-anchor="start">102.53</text></g><rect x="0" y="482" width="600" height="52" fill="#231f20"/><a xlink:href="http://www.phoronix-test-suite.com/" xlink:show="new"><text x="585" y="494" font-size="9" fill="#FEFEFE" text-anchor="end" xlink:show="new">Phoronix Test Suite 7.0.0</text></a><a xlink:href="/prospect/1703199-RI-ARMYARM4104/90c619324fe40626154ebb0a68445c6eb32752e9" xlink:show="new"><g transform="translate(4,483)" width="10" height="16"><path d="M5 0v6.5L0 11l3-3-3-3.5L5 0" fill="#038bb8"/><path d="M5 0v6.5l5 4.5-3-3 3-3.5L5 0" fill="#25b3e8"/><path d="M5 16V9l5-4.5V11l-5 5" fill="#e4f4fd"/><path d="M5 16V9L0 4.5V11l5 5" fill="#65cbf4"/></g></a><text x="5" y="508" font-size="8" fill="#FEFEFE" text-anchor="start" xlink:title="-lm -lpthread -O3" width="595">1. (CC) gcc options: -lm -lpthread -O3</text></svg>
